PathFileType	4	(X/Y/Z)	C:\Users\Basilio\Documents\Thesis Gigler\squatting_fais\c3dfiles\047\SLS_pre_back3\markers_experimental.trc
DataRate	CameraRate	NumFrames	NumMarkers	Units	OrigDataRate	OrigDataStartFrame	OrigNumFrames
200.000000	200.000000	4	61	mm	200.000000	159	1274
Frame#	Time	FHD			LBHD			RBHD			C7			T10			CLAV			LSHO			LUUPA			LMUPA			LDUPA			LLEP			LMEP			LRAD			LUL			LRFIN			RSHO			RUPA1			RMUPA			RDUPA			RLEP			RMEP			RRAD			RUL			RUFIN			LASI			RASI			USACR			LSACR			RSACR			LTHI1			LTHI2			LTHI3			LTHI4			LLFC			LTIB1			LTIB2			LTIB3			LTIB4			LLMAL			LMMAL			LMT1			LMT2			LMT5			RTHI			RTHI2			RTHI3			RTHI4			RLFC			RMFC			RTIB1			RTIB2			RTIB3			RTIB4			RLMAL			RMMAL			RHEE			RMT1			RMT2			RMT5			LMFC			*60			
		X1	Y1	Z1	X2	Y2	Z2	X3	Y3	Z3	X4	Y4	Z4	X5	Y5	Z5	X6	Y6	Z6	X7	Y7	Z7	X8	Y8	Z8	X9	Y9	Z9	X10	Y10	Z10	X11	Y11	Z11	X12	Y12	Z12	X13	Y13	Z13	X14	Y14	Z14	X15	Y15	Z15	X16	Y16	Z16	X17	Y17	Z17	X18	Y18	Z18	X19	Y19	Z19	X20	Y20	Z20	X21	Y21	Z21	X22	Y22	Z22	X23	Y23	Z23	X24	Y24	Z24	X25	Y25	Z25	X26	Y26	Z26	X27	Y27	Z27	X28	Y28	Z28	X29	Y29	Z29	X30	Y30	Z30	X31	Y31	Z31	X32	Y32	Z32	X33	Y33	Z33	X34	Y34	Z34	X35	Y35	Z35	X36	Y36	Z36	X37	Y37	Z37	X38	Y38	Z38	X39	Y39	Z39	X40	Y40	Z40	X41	Y41	Z41	X42	Y42	Z42	X43	Y43	Z43	X44	Y44	Z44	X45	Y45	Z45	X46	Y46	Z46	X47	Y47	Z47	X48	Y48	Z48	X49	Y49	Z49	X50	Y50	Z50	X51	Y51	Z51	X52	Y52	Z52	X53	Y53	Z53	X54	Y54	Z54	X55	Y55	Z55	X56	Y56	Z56	X57	Y57	Z57	X58	Y58	Z58	X59	Y59	Z59	X60	Y60	Z60	X61	Y61	Z61	

160	0.795	-166.2471466064453	1737.841796875	-1093.779418945313	-343.4457397460938	1698.588256835938	-1118.128295898438	-319.3115844726563	1701.9423828125	-970.8572387695315	-367.3181457519532	1523.497314453125	-1050.067138671875	-387.6984863281251	1210.686889648438	-1026.920043945313	-219.4609069824219	1462.767211914063	-1079.917358398438	-298.5349426269532	1479.327758789063	-1229.962768554688	-230.8560485839844	1337.306518554688	-1332.17822265625	-189.7840576171875	1364.67236328125	-1329.625610351563	-167.1841278076172	1311.3203125	-1346.799682617188	-94.59314727783205	1302.626953125	-1352.781127929688	-106.9928665161133	1247.633422851563	-1289.192504882813	61.0514259338379	1416.227416992188	-1181.802001953125	103.2310256958008	1353.528198242188	-1177.393676757813	150.4159393310547	1434.270751953125	-1173.532592773438	-252.0753784179688	1495.674682617188	-917.9571533203127	-148.8104248046875	1362.663940429688	-824.6419067382815	-111.4903411865235	1386.798706054688	-844.664733886719	-84.21028137207033	1335.21484375	-827.998474121094	-10.75474262237549	1327.127563476563	-848.7453613281252	-36.3995590209961	1257.925903320313	-899.8088989257815	79.70295715332033	1381.683715820313	-1086.069091796875	148.1605834960938	1371.707641601563	-1054.9765625	119.2631301879883	1451.815795898438	-1090.833251953125	-222.3847351074219	985.2984008789065	-1130.1484375	-202.3952026367188	1002.179382324219	-899.4893188476565	-392.758758544922	1075.850708007813	-1008.844604492188	-400.9972229003907	1042.671752929688	-1034.047241210938	-394.3456420898439	1046.729248046875	-976.2039794921877	-308.8017272949219	828.2696533203127	-1186.815307617188	-273.3976440429688	751.8115234375001	-1184.209106445313	-224.3719940185547	756.1044311523439	-1173.992553710938	-301.9070739746094	698.2353515625001	-1173.008911132813	-323.8522644042969	527.5952148437501	-1128.255737304688	-292.3724975585938	345.4784851074219	-1028.592895507813	-304.1475830078126	296.7514953613282	-1100.788330078125	-287.0389099121094	295.5121459960938	-1056.03759765625	-300.5020141601563	220.5166625976563	-1021.341613769531	-353.7915954589844	124.1619873046875	-1059.52392578125	-329.7176208496094	139.8100738525391	-974.9235839843752	-210.028060913086	63.79354095458986	-992.5491943359377	-210.664535522461	60.57876205444337	-1037.464477539063	-259.6953430175782	48.94666290283205	-1081.02978515625	-252.2819366455079	823.606384277344	-793.263610839844	-203.238021850586	778.0831298828127	-788.9158935546877	-174.6574096679688	783.0828247070315	-802.369567871094	-213.9590606689454	695.1763916015626	-779.089294433594	-191.2576293945313	564.1161499023439	-789.8501586914065	-190.1217193603516	530.2980346679689	-916.5164794921877	-273.2884826660157	471.3664855957032	-785.7788085937502	-370.6744079589844	508.4195861816407	-748.3778076171876	-353.8419494628907	464.8634338378907	-754.2105712890626	-397.0925292968751	431.2138977050782	-779.8167724609377	-560.3405151367189	442.7056274414064	-741.5964355468751	-538.4832763671876	403.2142333984376	-822.044372558594	-593.9183959960939	483.2466735839845	-803.7772216796877	-593.8854980468751	275.7792358398438	-790.268981933594	-593.7739868164064	276.4143981933594	-744.0969238281251	-630.4266967773439	328.8098449707032	-700.4746704101564	-290.6610107421876	523.1007080078126	-1008.386840820313	nan	nan	nan	
161	0.8	-166.1324157714844	1737.9287109375	-1093.99609375	-343.4375610351563	1698.650268554688	-1118.036376953125	-319.3479919433594	1701.914794921875	-970.7767333984377	-367.3525695800782	1523.492431640625	-1050.03076171875	-387.5788879394532	1210.699951171875	-1026.915405273438	-219.4599914550782	1462.77880859375	-1079.875732421875	-298.5031127929688	1479.333862304688	-1229.969360351563	-230.8855590820313	1337.335815429688	-1332.133544921875	-189.7758178710938	1364.75244140625	-1329.60009765625	-167.26904296875	1311.308349609375	-1346.778076171875	-94.56587219238283	1302.633911132813	-1352.764282226563	-106.8595046997071	1247.761474609375	-1289.048095703125	61.28857040405275	1416.375732421875	-1182.012451171875	103.2801666259766	1353.57177734375	-1177.362060546875	150.41650390625	1434.359497070313	-1173.516967773438	-252.1002502441407	1495.638671875	-917.939636230469	-148.8771057128907	1362.686157226563	-824.7675781250002	-111.7141494750977	1386.783325195313	-844.5388793945315	-84.2250213623047	1335.190551757813	-827.9520263671877	-10.65846252441406	1327.194091796875	-848.760681152344	-36.35670852661134	1257.964233398438	-899.750427246094	79.67498016357423	1381.715576171875	-1086.033325195313	148.1514129638672	1371.791381835938	-1054.959838867188	119.2675552368164	1451.890625	-1090.838989257813	-222.2429351806641	985.2791748046877	-1130.087646484375	-202.3873748779297	1002.171875	-899.4465942382815	-392.742645263672	1075.851196289063	-1008.848266601563	-400.967254638672	1042.656982421875	-1034.083374023438	-394.303924560547	1046.7236328125	-976.2401123046877	-308.6899719238282	828.247009277344	-1186.813598632813	-273.1701660156251	751.7343139648439	-1184.124267578125	-224.2934875488282	756.0682373046876	-1173.896362304688	-301.7814025878907	698.2175292968751	-1172.974731445313	-323.7691345214844	527.5814208984376	-1128.218994140625	-292.2185058593751	345.5055236816407	-1028.69091796875	-304.0231628417969	296.7584228515626	-1100.728271484375	-287.0590515136719	295.5998535156251	-1056.078491210938	-300.4752197265626	220.5003356933594	-1021.196655273438	-353.7290344238282	124.2349166870117	-1059.527465820313	-329.6986694335938	139.7486114501953	-974.8662109375002	-210.1634521484376	63.71735000610353	-992.4073486328127	-210.8463134765626	60.60765075683595	-1037.500854492188	-259.5953674316407	48.92897033691408	-1080.994018554688	-252.2750549316407	823.6614990234377	-793.2590942382815	-203.2387084960938	778.0762939453127	-788.9309692382815	-174.7049713134766	783.0631103515627	-802.2288818359377	-213.9700012207032	695.1958618164064	-779.0129394531252	-191.2373657226563	564.1243286132814	-789.824157714844	-190.7490997314453	531.1130981445314	-916.3006591796877	-273.2467041015626	471.3677673339845	-786.0100708007815	-370.6555786132813	508.3977355957032	-748.5029296875001	-353.8156433105469	464.8580627441407	-754.2120361328126	-396.9756774902345	431.1446533203126	-779.7587890625002	-560.3621215820314	442.6668701171876	-741.7160644531251	-538.4001464843751	403.1966552734376	-822.1541137695315	-593.9132080078126	483.1855468750001	-803.913513183594	-593.9176635742189	275.7104187011719	-790.3194580078127	-593.7915039062501	276.4179687500001	-744.2546386718751	-630.4288330078126	328.7868347167969	-700.5909423828126	-288.4657287597657	524.5784301757814	-1009.353088378906	nan	nan	nan	
162	0.805	-166.4533843994141	1737.687866210938	-1093.4033203125	-343.4992980957032	1698.638793945313	-1117.966064453125	-319.3665466308594	1701.919799804688	-970.7219848632815	-367.3340148925782	1523.470703125	-1049.99755859375	-387.6022033691407	1210.607177734375	-1026.955810546875	-219.4249267578126	1462.83154296875	-1079.773559570313	-298.5559082031251	1479.312622070313	-1229.941772460938	-230.9331512451172	1337.298217773438	-1332.055908203125	-189.8158416748047	1364.792846679688	-1329.537353515625	-167.2038726806641	1311.286743164063	-1346.757568359375	-94.54091644287111	1302.656982421875	-1352.689331054688	-106.8651504516602	1247.8828125	-1289.008178710938	61.27217864990236	1416.39501953125	-1181.954345703125	103.153434753418	1353.560791015625	-1177.122436523438	150.3735504150391	1434.393432617188	-1173.442138671875	-252.1798095703126	1495.645141601563	-917.8773193359377	-148.9694366455078	1362.601440429688	-824.6975097656252	-111.8314514160157	1386.739501953125	-844.435485839844	-84.20466613769533	1335.219360351563	-827.971862792969	-10.70196914672852	1327.2060546875	-848.7634887695315	-36.3609848022461	1257.948608398438	-899.750671386719	79.70147705078126	1381.741943359375	-1086.089965820313	148.1321716308594	1371.823120117188	-1054.9697265625	119.2426528930664	1451.970825195313	-1090.851440429688	-222.0750274658204	985.2415161132815	-1130.03369140625	-202.3784484863282	1002.178588867188	-899.4067382812502	-392.7223510742189	1075.817504882813	-1008.884460449219	-400.8743591308595	1042.60302734375	-1034.113525390625	-394.283416748047	1046.6904296875	-976.3376464843752	-308.4895935058594	828.2139892578127	-1186.785034179688	-272.9949035644532	751.7391967773439	-1184.077270507813	-224.1629486083985	756.0891113281251	-1173.842163085938	-301.5586547851563	698.1473999023439	-1172.959716796875	-323.6362915039063	527.5914916992189	-1128.184936523438	-292.0974426269532	345.5316162109376	-1028.65380859375	-303.8517761230469	296.7086486816407	-1100.651977539063	-286.9394531250001	295.6717834472657	-1056.09130859375	-300.4699401855469	220.5515289306641	-1021.037109375	-353.5426940917969	124.2663650512696	-1059.606079101563	-329.7670288085938	139.6765441894532	-974.807312011719	-210.2528991699219	63.65343093872072	-992.3870239257815	-210.7607421875001	60.66703414916994	-1037.529663085938	-259.6726989746094	48.90020751953126	-1081.00634765625	-252.2746124267579	823.6331787109377	-793.1920166015627	-203.2749176025391	778.0675048828127	-788.863220214844	-174.637191772461	783.0856933593752	-802.3382568359377	-214.0191955566407	695.0573730468751	-778.8213500976565	-191.190902709961	564.1411132812501	-789.7500000000002	-190.2088165283203	530.5801391601564	-916.335388183594	-273.2800292968751	471.3358459472657	-785.7126464843752	-370.6331481933594	508.386688232422	-748.5261230468751	-353.7890930175782	464.8006896972657	-754.1981201171876	-396.9305725097657	431.1441955566407	-779.8067016601565	-560.3616943359376	442.6320800781251	-741.7952880859376	-538.3221435546876	403.1564331054689	-822.2871093750002	-593.8749389648439	483.1056213378907	-804.009948730469	-593.8916015625001	275.6268920898438	-790.3422851562502	-593.8042602539064	276.3161010742188	-744.3217773437501	-630.4747314453126	328.7355651855469	-700.7317504882814	-288.4053039550782	524.4977416992189	-1009.268920898438	nan	nan	nan	
163	0.8100000000000001	-166.424560546875	1737.716186523438	-1093.4951171875	-343.5205078125001	1698.6005859375	-1117.920043945313	-319.3411254882813	1701.882690429688	-970.658874511719	-367.3769531250001	1523.509399414063	-1049.990112304688	-387.6019287109376	1210.605834960938	-1026.956420898438	-219.5698852539063	1462.716430664063	-1079.612182617188	-298.5014038085938	1479.296264648438	-1229.911743164063	-230.9808959960938	1337.314208984375	-1332.057861328125	-189.8554382324219	1364.695678710938	-1329.543334960938	-167.1923828125	1311.300170898438	-1346.68408203125	-94.51063537597658	1302.732421875	-1352.676147460938	-106.8606719970703	1247.764892578125	-1289.047729492188	61.2002296447754	1416.43310546875	-1181.869873046875	103.2227935791016	1353.60888671875	-1177.082275390625	150.3916320800782	1434.952026367188	-1173.391479492188	-252.2415313720704	1495.614501953125	-917.7983398437502	-149.0507202148438	1362.511962890625	-824.5957031250002	-111.9317779541016	1386.67529296875	-844.202575683594	-84.21131134033205	1335.235107421875	-827.9315185546877	-10.77622985839844	1327.227416992188	-848.6793212890627	-36.36504364013673	1257.953247070313	-899.7098388671877	79.55883789062501	1381.783813476563	-1085.954345703125	148.1183013916016	1371.859375	-1054.882080078125	119.255485534668	1452.018798828125	-1090.7587890625	-221.9719390869141	985.274108886719	-1129.973022460938	-202.3808898925782	1002.157531738281	-899.3860473632815	-392.640838623047	1075.7900390625	-1008.958251953125	-400.8183593750001	1042.60400390625	-1034.12158203125	-394.2156982421876	1046.68359375	-976.3257446289065	-308.6178283691407	828.0003662109377	-1186.691650390625	-272.8114929199219	751.6624755859376	-1184.036743164063	-224.1271667480469	755.9983520507814	-1173.653076171875	-301.5265808105469	698.1788330078126	-1172.909057617188	-323.5270996093751	527.6190185546876	-1128.199584960938	-291.9814147949219	345.5228576660157	-1028.673217773438	-303.7866210937501	296.6392211914063	-1100.578857421875	-286.6815185546876	295.7194824218751	-1056.096557617188	-300.4118041992188	220.5583953857422	-1020.994018554688	-353.6294250488282	124.2811279296875	-1059.540405273438	-329.7601013183594	139.6728210449219	-974.7362060546877	-210.0792999267579	63.68968582153322	-992.4848632812502	-210.7873229980469	60.60929489135744	-1037.494873046875	-259.6542968750001	48.94107818603517	-1081.024047851563	-252.2794342041016	823.643005371094	-793.2459716796877	-203.2681427001954	778.0657348632815	-788.741882324219	-174.6393280029297	783.0918579101565	-802.2756347656252	-213.9227600097657	695.2166137695314	-778.878601074219	-191.1614837646485	564.1163940429689	-789.7857666015627	-190.3733367919922	530.7823486328126	-916.2575683593752	-273.2593688964844	471.3558349609376	-785.7772216796877	-370.6090393066407	508.3900146484376	-748.5932617187501	-353.7774963378907	464.7143859863282	-754.2612915039064	-396.9917297363282	431.120086669922	-779.882751464844	-560.3540039062501	442.6268920898439	-741.8043823242189	-538.1730346679689	403.0885314941407	-822.389343261719	-593.7089233398439	483.0848693847657	-804.1674804687502	-593.9977416992189	275.5599670410157	-790.4722900390627	-593.7888793945314	276.2405395507813	-744.1894531250001	-630.5150146484376	328.6989135742188	-700.9058227539064	-288.2297973632813	524.5606079101564	-1009.265747070313	nan	nan	nan	
